#!OML:ASF I:\salsa\salsa 7_09\Patient 1\Session 1\dancermale.ASF
:FULLY-SPECIFIED
:DEGREES
1612
root 3.77916 16.9738 -2.18005 -108.316 92.8437 -118.706
lowerback -7.04048 0.718018 7.51074
upperback 2.90941 0.364263 -2.12402
thorax 7.12162 0.585854 -6.45281
lowerneck -11.3356 -3.65056 -0.654026
upperneck 29.5655 -3.95411 -1.02568
head 11.4672 -1.68706 -0.718773
rclavicle -2.48481e-016 -1.13307e-014
rhumerus -85.7561 4.91264 -114.169
rradius 58.6162
rwrist 12.8195
rhand 38.3845 7.38065
rfingers 7.12502
rthumb 61.043 -5.25602
lclavicle -2.48481e-016 -1.13307e-014
lhumerus -75.2225 -18.9265 121.712
lradius 55.4924
lwrist 6.36901
lhand -7.0673 51.8204
lfingers 7.12502
lthumb 18.8061 440.931
rfemur -36.1391 -5.88092 26.725
rtibia 48.947
rfoot -10.8135 0.657283
rtoes 2.57613
lfemur -12.3458 6.05198 -29.4315
ltibia 44.2616
lfoot 349.961 -11.7934
ltoes 5.4276
1613
root 3.84882 17.0201 -2.25287 -99.2001 92.0927 -109.687
lowerback -7.08338 0.684377 8.016
upperback 2.84205 0.248973 -1.87506
thorax 7.06026 0.539889 -6.4884
lowerneck -11.0312 -4.85569 -1.87163
upperneck 29.5235 -5.69817 -0.0210849
head 11.4679 -2.4862 -0.36415
rclavicle 7.95139e-016 3.95581e-014
rhumerus -86.7397 5.79644 -114.243
rradius 60.2676
rwrist 11.8151
rhand 43.1474 7.9652
rfingers 7.12502
rthumb 64.9472 0.700713
lclavicle 7.95139e-016 3.95581e-014
lhumerus -74.3577 -19.1829 120.525
lradius 54.3936
lwrist 4.59503
lhand -6.95031 51.573
lfingers 7.12502
lthumb 18.9186 440.673
rfemur -34.8647 -5.61359 27.1354
rtibia 46.9501
rfoot -11.6847 -0.647873
rtoes 2.64916
lfemur -15.1796 7.95338 -28.0311
ltibia 48.728
lfoot 354.805 -14.8006
ltoes 2.94971
1614
root 3.90928 17.0645 -2.31677 -83.3796 91.4151 -93.8525
lowerback -6.88509 0.680004 8.46261
upperback 2.7813 0.202436 -1.63615
thorax 6.87723 0.52005 -6.48999
lowerneck -10.6687 -6.03904 -2.63854
upperneck 29.3068 -7.43702 0.680234
head 11.4003 -3.27778 -0.195852
rclavicle -4.47266e-016 1.31198e-014
rhumerus -87.8544 6.60936 -114.447
rradius 62.0112
rwrist 10.6761
rhand 46.6858 9.88557
rfingers 7.12502
rthumb 67.6472 7.84242
lclavicle -4.47266e-016 1.31198e-014
lhumerus -73.5507 -19.4748 119.361
lradius 53.3478
lwrist 3.50303
lhand -7.32553 51.5742
lfingers 7.12502
lthumb 18.5577 440.709
rfemur -33.4621 -5.73429 27.7036
rtibia 44.9547
rfoot -12.391 -1.84875
rtoes 2.14102
lfemur -18.1073 9.61836 -26.5411
ltibia 53.4143
lfoot 358.767 -17.0004
ltoes -5.6102
1615
root 3.96441 17.1039 -2.37601 -54.987 91.1422 -65.3375
lowerback -6.50436 0.676439 8.6446
upperback 2.73147 0.206989 -1.46587
thorax 6.60591 0.511487 -6.40675
lowerneck -10.3944 -7.25568 -3.21605
upperneck 29.1572 -9.22714 1.24867
head 11.3909 -4.0878 -0.121324
rclavicle -9.93923e-016 8.74653e-015
rhumerus -89.0993 7.36261 -114.711
rradius 64.0861
rwrist 10.0803
rhand 49.6612 11.2084
rfingers 7.12502
rthumb 69.7283 14.6256
lclavicle -9.93923e-016 8.74653e-015
lhumerus -72.8128 -19.6951 118.094
lradius 52.5225
lwrist 4.02635
lhand -8.45947 51.7285
lfingers 7.12502
lthumb 17.4667 440.964
rfemur -31.9366 -6.19243 28.0681
rtibia 42.9786
rfoot -13.033 -2.85337
rtoes 1.69117
lfemur -20.9422 10.8584 -25.2519
ltibia 58.1218
lfoot 360.822 -18.0746
ltoes -10.419
1616
root 4.01363 17.1387 -2.4346 -34.3612 91.2983 -44.6332
lowerback -6.18556 0.707131 8.58033
upperback 2.6833 0.282665 -1.41869
thorax 6.38202 0.532727 -6.30814
lowerneck -9.98829 -8.49037 -3.70848
upperneck 28.9178 -11.0721 1.85095
head 11.3442 -4.9152 -0.052942
rclavicle 5.61567e-015 1.98785e-015
rhumerus -90.3031 8.13421 -114.963
rradius 66.5093
rwrist 9.29052
rhand 52.5261 11.0016
rfingers 7.12502
rthumb 71.5104 20.807
lclavicle 5.61567e-015 1.98785e-015
lhumerus -72.3363 -19.9458 116.832
lradius 52.1505
lwrist 5.78842
lhand -10.0459 52.2001
lfingers 7.12502
lthumb 15.9395 441.564
rfemur -30.5598 -6.69503 28.0773
rtibia 41.0796
rfoot -13.5822 -3.51131
rtoes 2.43867
lfemur -23.7388 11.9448 -24.3439
ltibia 62.5557
lfoot 361.156 -17.4333
ltoes -15.962
1617
root 4.05594 17.173 -2.49519 -29.48 91.5022 -39.6791
lowerback -5.9123 0.761656 8.41819
upperback 2.68757 0.399216 -1.49259
thorax 6.24737 0.579432 -6.28045
lowerneck -9.47745 -9.68646 -4.24736
upperneck 28.4862 -12.8962 2.60824
head 11.2432 -5.73252 0.0847509
rclavicle 1.59028e-015 -2.5842e-015
rhumerus -91.386 9.11299 -115.216
rradius 68.9796
rwrist 7.64704
rhand 55.5354 10.4278
rfingers 7.12502
rthumb 73.0715 28.3065
lclavicle 1.59028e-015 -2.5842e-015
lhumerus -71.7213 -20.0303 115.088
lradius 51.992
lwrist 8.13356
lhand -10.8432 52.03
lfingers 7.12502
lthumb 15.1715 441.454
rfemur -29.3125 -7.04574 27.8515
rtibia 39.3448
rfoot -14.0301 -4.10042
rtoes 2.6081
lfemur -26.3416 13.0499 -23.7594
ltibia 66.4623
lfoot 360.716 -15.1595
ltoes -16.5964
1618
root 4.09402 17.2123 -2.5594 -38.7213 91.6021 -48.8944
lowerback -5.67749 0.885048 8.10081
upperback 2.70999 0.621616 -1.6718
thorax 6.17055 0.67818 -6.26606
lowerneck -8.93822 -10.7135 -4.66622
upperneck 27.9704 -14.4738 3.28801
head 11.1044 -6.44404 0.2096
rclavicle 3.32964e-015 2.78299e-015
rhumerus -92.3677 10.3123 -115.41
rradius 71.0789
rwrist 6.32565
rhand 58.6666 13.2096
rfingers 7.12502
rthumb 74.2576 40.9966
lclavicle 3.32964e-015 2.78299e-015
lhumerus -70.9473 -19.9349 113.178
lradius 51.4434
lwrist 8.82025
lhand -11.117 52.0011
lfingers 7.12502
lthumb 14.9077 441.445
rfemur -28.2367 -6.99898 27.3789
rtibia 37.7919
rfoot -14.377 -4.87575
rtoes 2.21909
lfemur -28.7261 14.0941 -23.5438
ltibia 69.9346
lfoot 358.657 -10.282
ltoes -22.1437
1619
root 4.1283 17.2574 -2.62631 -56.4025 91.5726 -66.6233
lowerback -5.50532 1.12041 7.8152
upperback 2.70222 0.987122 -1.88518
thorax 6.12271 0.850333 -6.29104
lowerneck -8.45681 -11.3961 -4.38917
upperneck 27.5093 -15.5016 3.32549
head 10.8634 -6.91232 0.0820806
rclavicle 9.93923e-015 -9.93923e-015
rhumerus -93.2318 11.583 -115.396
rradius 73.191
rwrist 4.71845
rhand 60.7472 12.7205
rfingers 7.12502
rthumb 74.7466 47.8076
lclavicle 9.93923e-015 -9.93923e-015
lhumerus -70.1875 -19.8482 111.295
lradius 50.5321
lwrist 8.80241
lhand -11.2067 51.675
lfingers 7.12502
lthumb 14.8214 441.125
rfemur -27.3579 -6.45336 26.8842
rtibia 36.3322
rfoot -14.5676 -5.69537
rtoes 2.34902
lfemur -30.8286 14.9219 -23.3874
ltibia 72.8388
lfoot 356.989 -5.37525
ltoes -20.9316
1620
root 4.15807 17.3069 -2.69503 -80.7001 91.5759 -90.9629
lowerback -5.30726 1.43914 7.69502
upperback 2.67382 1.45434 -2.12674
thorax 6.06175 1.07951 -6.43061
lowerneck -8.06264 -12.2413 -4.62234
upperneck 27.3368 -16.7929 3.80905
head 10.857 -7.48534 0.134447
rclavicle 2.01766e-014 7.55382e-015
rhumerus -93.9535 12.8572 -115.067
rradius 74.8219
rwrist 4.30091
rhand 61.9178 14.7587
rfingers 7.12502
rthumb 74.9051 54.1235
lclavicle 2.01766e-014 7.55382e-015
lhumerus -69.4702 -19.8357 109.351
lradius 49.4806
lwrist 9.0214
lhand -11.3345 51.2613
lfingers 7.12502
lthumb 14.6983 440.72
rfemur -26.522 -5.58044 26.4607
rtibia 34.8881
rfoot -14.4256 -6.39375
rtoes 1.71749
lfemur -32.4745 15.3356 -22.9995
ltibia 74.7773
lfoot 356.32 -1.31258
ltoes -15.3334
1621
root 4.18544 17.3591 -2.76712 -104.379 91.9245 -114.664
lowerback -5.10907 1.7601 7.5666
upperback 2.64283 1.92563 -2.38236
thorax 6.00112 1.3113 -6.58147
lowerneck -7.65651 -13.0064 -4.88506
upperneck 27.0916 -17.9709 4.32227
head 10.8323 -8.01232 0.216107
rclavicle -2.54196e-014 -1.63003e-014
rhumerus -94.5317 14.3052 -114.326
rradius 76.6167
rwrist 3.28259
rhand 63.7868 15.3469
rfingers 7.12502
rthumb 74.9757 61.6578
lclavicle -2.54196e-014 -1.63003e-014
lhumerus -68.6388 -19.6834 107.256
lradius 48.3093
lwrist 9.42862
lhand -11.578 51.2206
lfingers 7.12502
lthumb 14.4637 440.697
rfemur -25.6761 -4.66039 25.9494
rtibia 33.5111
rfoot -14.2353 -6.91873
rtoes 1.17055
lfemur -33.7281 15.2676 -22.5193
ltibia 75.9441
lfoot 356.339 1.54338
ltoes -8.79554
1622
root 4.21122 17.4102 -2.84307 -117.986 92.516 -128.27
lowerback -4.99847 2.00738 7.37989
upperback 2.62911 2.29353 -2.60688
thorax 5.98874 1.49175 -6.67636
lowerneck -7.15837 -13.637 -5.32849
upperneck 26.7525 -18.9508 4.9384
head 10.7858 -8.46392 0.390242
rclavicle -1.04362e-014 -2.0276e-014
rhumerus -94.933 15.9915 -113.042
rradius 78.605
rwrist 1.04697
rhand 66.4497 12.8312
rfingers 7.12502
rthumb 74.687 68.9206
lclavicle -1.04362e-014 -2.0276e-014
lhumerus -67.6954 -19.2805 105.025
lradius 47.0488
lwrist 9.86616
lhand -11.9008 51.3094
lfingers 7.12502
lthumb 14.1526 440.807
rfemur -24.7625 -3.93667 25.3525
rtibia 32.0384
rfoot -14.3339 -7.31642
rtoes 1.76205
lfemur -34.6216 14.6776 -21.9779
ltibia 76.5761
lfoot 356.812 3.35327
ltoes -4.13157
